mtllib testLevel.mtl
# vertices
v -32 -20 -32
v -32 -20 32
v -32 -18 32
v -32 -18 -32
v 32 -18 32
v 32 -20 32
v 32 -20 -32
v 32 -18 -32
v 9 -18 -3
v 9 -18 3
v 9 -16 3
v 9 -16 -3
v 19 -16 3
v 19 -18 3
v 19 -18 -3
v 19 -16 -3
v 19 -18 -7
v 19 -18 7
v 19 -16 7
v 19 -16 -7
v 29 -18 1
v 29 -18 -1
v 29 -16 -1
v 29 -16 1
v -3 -18 -18
v -3 -18 -8
v -3 -16 -8
v -3 -16 -18
v 3 -16 -8
v 3 -18 -8
v 3 -18 -18
v 3 -16 -18
v -1 -18 -28
v -7 -18 -18
v -7 -16 -18
v -1 -16 -28
v 7 -16 -18
v 7 -18 -18
v 1 -18 -28
v 1 -16 -28

# texture coordinates
vt 1 -0.3125
vt 0 -0.3125
vt 0 -0.28125
vt 1 -0.28125
vt 1 -0
vt 0 -0
vt 0 1
vt 1 1
vt 0.0029296875 -0.017578125
vt -0.0029296875 -0.017578125
vt -0.0029296875 -0.015625
vt 0.0029296875 -0.015625
vt 0.018554688 -0.015625
vt 0.0087890625 -0.015625
vt 0.0087890625 -0.017578125
vt 0.018554688 -0.017578125
vt 0.018554688 -0.0029296875
vt 0.0087890625 -0.0029296875
vt 0.0087890625 0.0029296875
vt 0.018554688 0.0029296875
vt 0.038085938 -0.01953125
vt 0.024414062 -0.01953125
vt 0.024414062 -0.017578125
vt 0.038085938 -0.017578125
vt 0.059570312 0.030273438
vt 0.049804688 0.024414062
vt 0.049804688 0.038085938
vt 0.059570312 0.032226562
vt 0.059570312 -0.017578125
vt 0.049804688 -0.017578125
vt 0.049804688 -0.01953125
vt 0.059570312 -0.01953125
vt 0.032226562 -0.01953125
vt 0.032226562 -0.017578125
vt 0.030273438 -0.017578125
vt 0.030273438 -0.01953125
vt 0.024902344 -0.009765625
vt 0.020019531 -0.009765625
vt 0.020019531 -0.0087890625
vt 0.024902344 -0.0087890625
vt 0.017089844 -0.0087890625
vt 0.014160156 -0.0087890625
vt 0.014160156 -0.009765625
vt 0.017089844 -0.009765625
vt 0.017578125 0.01953125
vt 0.0146484375 0.01953125
vt 0.0146484375 0.024414062
vt 0.017578125 0.024414062
vt 0.029785156 -0.009765625
vt 0.029785156 -0.0087890625
vt 0.012207031 -0.0087890625
vt 0.019042969 -0.0087890625
vt 0.019042969 -0.009765625
vt 0.012207031 -0.009765625
vt 0.024902344 0.012207031
vt 0.024902344 0.019042969
vt 0.029785156 0.016113281
vt 0.029785156 0.015136719
vt 0.015136719 -0.009765625
vt 0.016113281 -0.009765625
vt 0.016113281 -0.0087890625
vt 0.015136719 -0.0087890625

# normals
vn -1 0 0
vn 0 0 1
vn 0 -1 -0
vn -0 1 -0
vn 0 -0 -1
vn 1 0 0
vn 0.5144957554275265 0 0.8574929257125441
vn 0.5144957554275265 -0 -0.8574929257125441
vn -0.8574929257125441 0 -0.5144957554275265
vn 0.8574929257125441 0 -0.5144957554275265

o entity0_brush0
usemtl dev_measure_64
f  1/1/1  2/2/1  3/3/1  4/4/1
usemtl dev_measure_64
f  5/4/2  3/3/2  2/2/2  6/1/2
usemtl dev_measure_64
f  6/5/3  2/6/3  1/7/3  7/8/3
usemtl dev_measure_64
f  8/8/4  4/7/4  3/6/4  5/5/4
usemtl dev_measure_64
f  7/1/5  1/2/5  4/3/5  8/4/5
usemtl dev_measure_64
f  8/4/6  5/3/6  6/2/6  7/1/6

o entity0_brush1
usemtl measure
f  9/9/1  10/10/1  11/11/1  12/12/1
usemtl measure
f  13/13/2  11/14/2  10/15/2  14/16/2
usemtl measure
f  14/17/3  10/18/3  9/19/3  15/20/3
usemtl measure
f  16/20/4  12/19/4  11/18/4  13/17/4
usemtl measure
f  15/16/5  9/15/5  12/14/5  16/13/5
usemtl measure
f  16/12/6  13/11/6  14/10/6  15/9/6

o entity0_brush2
usemtl measure
f  17/21/1  18/22/1  19/23/1  20/24/1
usemtl measure
f  21/25/3  18/26/3  17/27/3  22/28/3
usemtl measure
f  23/28/4  20/27/4  19/26/4  24/25/4
usemtl measure
f  24/29/7  19/30/7  18/31/7  21/32/7
usemtl measure
f  22/32/8  17/31/8  20/30/8  23/29/8
usemtl measure
f  22/33/6  23/34/6  24/35/6  21/36/6

o entity0_brush3
usemtl brick
f  25/37/1  26/38/1  27/39/1  28/40/1
usemtl brick
f  29/41/2  27/42/2  26/43/2  30/44/2
usemtl brick
f  30/45/3  26/46/3  25/47/3  31/48/3
usemtl brick
f  32/48/4  28/47/4  27/46/4  29/45/4
usemtl brick
f  31/44/5  25/43/5  28/42/5  32/41/5
usemtl brick
f  32/40/6  29/39/6  30/38/6  31/37/6

o entity0_brush4
usemtl brick
f  33/49/9  34/37/9  35/40/9  36/50/9
usemtl brick
f  37/51/2  35/52/2  34/53/2  38/54/2
usemtl brick
f  38/55/3  34/56/3  33/57/3  39/58/3
usemtl brick
f  40/58/4  36/57/4  35/56/4  37/55/4
usemtl brick
f  39/59/5  33/60/5  36/61/5  40/62/5
usemtl brick
f  40/50/10  37/40/10  38/37/10  39/49/10

